<?xml version="1.0" standalone="no"?>
<!DOCTYPE svg PUBLIC "-//W3C//DTD SVG 20010904//EN"
 "http://www.w3.org/TR/2001/REC-SVG-20010904/DTD/svg10.dtd">
<svg version="1.0" xmlns="http://www.w3.org/2000/svg"
 width="180.000000pt" height="180.000000pt" viewBox="0 0 180.000000 180.000000"
 preserveAspectRatio="xMidYMid meet">

<g transform="translate(0.000000,180.000000) scale(0.100000,-0.100000)"
fill="#000000" stroke="none">
<path d="M0 900 l0 -900 900 0 900 0 0 900 0 900 -900 0 -900 0 0 -900z m698
328 l2 -198 210 0 210 0 2 198 3 197 90 0 90 0 3 -487 2 -488 -95 0 -95 0 0
200 0 200 -210 0 -210 0 0 -200 0 -200 -95 0 -95 0 0 490 0 491 93 -3 92 -3 3
-197z"/>
</g>
</svg>
